<?xml version="1.0" encoding="UTF-8"?>
<svg width="28px" height="16px" viewBox="0 0 28 16" version="1.1" xmlns="http://www.w3.org/2000/svg" xmlns:xlink="http://www.w3.org/1999/xlink">
    <!-- Generator: Sketch 51.1 (57501) - http://www.bohemiancoding.com/sketch -->
    <title>Shape</title>
    <desc>Created with Sketch.</desc>
    <defs></defs>
    <g id="design" stroke="none" stroke-width="1" fill="none" fill-rule="evenodd">
        <g id="DE-server---basic-3.0" transform="translate(-135.000000, -190.000000)" fill="#2C4EDD" fill-rule="nonzero">
            <path d="M158.900014,197.732842 C158.469769,197.732842 158.055793,197.800277 157.666523,197.924212 C157.661703,195.607427 155.798511,193.731096 153.500253,193.731096 C152.719002,193.731096 151.990778,193.951626 151.366199,194.328593 C150.347831,191.790975 147.882055,190 144.999892,190 C141.445547,190 138.522409,192.722306 138.169294,196.211607 C136.312731,196.958859 135,198.786893 135,200.92537 C135,203.646764 137.125015,205.86756 139.792958,205.993925 C139.813145,205.995444 139.832729,206 139.853518,206 L158.813543,206 C158.823486,206 158.832525,205.99757 158.842467,205.996962 C158.86175,205.997266 158.880731,206 158.900014,206 C161.164527,206 163,204.149488 163,201.866421 C163.000301,199.583354 161.164527,197.732842 158.900014,197.732842 Z" id="Shape"></path>
        </g>
    </g>
</svg>