<?xml version="1.0" encoding="UTF-8"?>
<svg width="299px" height="59px" viewBox="0 0 299 59" version="1.1" xmlns="http://www.w3.org/2000/svg" xmlns:xlink="http://www.w3.org/1999/xlink">
    <!-- Generator: Sketch 46.2 (44496) - http://www.bohemiancoding.com/sketch -->
    <title>de-bs-logo (1)@1x</title>
    <desc>Created with Sketch.</desc>
    <defs></defs>
    <g id="Page-1" stroke="none" stroke-width="1" fill="none" fill-rule="evenodd">
        <g id="de-bs-logo-(1)">
            <polygon id="Fill-69" fill="#EB4724" fill-rule="nonzero" points="22.5322 17.6039 50.9432 17.6039 51.8562 14.1949 23.4462 14.1949"></polygon>
            <polygon id="Fill-70" fill="#EB4724" fill-rule="nonzero" points="15.1598 44.6362 43.5708 44.6362 44.4838 41.2272 16.0738 41.2272"></polygon>
            <polygon id="Fill-71" fill="#EB4724" fill-rule="nonzero" points="11.7886 24.3988 40.1996 24.3988 41.1126 20.9898 12.7026 20.9898"></polygon>
            <polygon id="Fill-72" fill="#EB4724" fill-rule="nonzero" points="8.0003 37.9374 36.4113 37.9374 37.3243 34.5284 8.9143 34.5284"></polygon>
            <polygon id="Fill-73" fill="#EB4724" fill-rule="nonzero" points="0.4268 31.0798 47.2428 31.0798 48.1568 27.6708 1.3408 27.6708"></polygon>
            <polygon id="Fill-74" fill="#EB4724" fill-rule="nonzero" points="198.9012 28.623 198.9012 6.656 214.4462 6.656 214.4462 10.773 203.5772 10.773 203.5772 15.416 214.2152 15.416 214.2152 19.533 203.5772 19.533 203.5772 24.506 214.4462 24.506 214.4462 28.623"></polygon>
            <path d="M228.0699,28.623 L228.0699,19.006 C228.0699,16.8 226.9169,16.042 225.1389,16.042 C223.4919,16.042 222.2079,16.964 221.5159,17.92 L221.5159,28.623 L217.3339,28.623 L217.3339,12.716 L221.5159,12.716 L221.5159,14.791 C222.5369,13.572 224.4799,12.321 227.0819,12.321 C230.5729,12.321 232.2519,14.297 232.2519,17.393 L232.2519,28.623 L228.0699,28.623 Z" id="Fill-75" fill="#EB4724" fill-rule="nonzero"></path>
            <path d="M242.7065,15.6471 C240.1045,15.6471 238.9845,17.5901 238.7875,19.1711 L246.6255,19.1711 C246.5265,17.6561 245.4725,15.6471 242.7065,15.6471 M234.4735,20.6531 C234.4735,16.0421 237.8655,12.3211 242.7065,12.3211 C247.4485,12.3211 250.6765,15.8771 250.6765,21.0811 L250.6765,22.0031 L238.8535,22.0031 C239.1165,24.0121 240.7305,25.6921 243.4315,25.6921 C244.7815,25.6921 246.6585,25.0991 247.6795,24.1111 L249.5235,26.8121 C247.9425,28.2611 245.4405,29.0181 242.9705,29.0181 C238.1285,29.0181 234.4735,25.7581 234.4735,20.6531" id="Fill-77" fill="#EB4724" fill-rule="nonzero"></path>
            <path d="M253.0488,28.623 L253.0488,12.716 L257.2308,12.716 L257.2308,14.89 C258.3508,13.473 260.3278,12.321 262.3028,12.321 L262.3028,16.405 C262.0068,16.339 261.6118,16.306 261.1508,16.306 C259.7678,16.306 257.9228,17.096 257.2308,18.117 L257.2308,28.623 L253.0488,28.623 Z" id="Fill-79" fill="#EB4724" fill-rule="nonzero"></path>
            <path d="M275.2204,22.9913 L275.2204,17.8533 C274.5284,16.8003 273.0144,16.0423 271.6304,16.0423 C269.2594,16.0423 267.6124,17.6893 267.6124,20.4223 C267.6124,23.1563 269.2594,24.8033 271.6304,24.8033 C273.0144,24.8033 274.5284,24.0123 275.2204,22.9913 M263.9904,32.7073 L265.8674,29.6773 C267.1514,31.0933 268.8314,31.6533 270.8404,31.6533 C272.8494,31.6533 275.2204,30.7643 275.2204,27.6353 L275.2204,26.0213 C273.9684,27.6023 272.2564,28.5243 270.3134,28.5243 C266.3284,28.5243 263.2984,25.7253 263.2984,20.4223 C263.2984,15.2193 266.2954,12.3213 270.3134,12.3213 C272.2234,12.3213 273.9354,13.1443 275.2204,14.7583 L275.2204,12.7163 L279.4364,12.7163 L279.4364,27.5363 C279.4364,33.5963 274.7594,35.0783 270.8404,35.0783 C268.1074,35.0783 265.9994,34.4523 263.9904,32.7073" id="Fill-81" fill="#EB4724" fill-rule="nonzero"></path>
            <path d="M283.3998,31.0931 C283.7618,31.2581 284.3218,31.3561 284.7168,31.3561 C285.8038,31.3561 286.5288,31.0601 286.9238,30.2041 L287.5168,28.8531 L281.0618,12.7161 L285.5408,12.7161 L289.6898,23.7821 L293.8398,12.7161 L298.3518,12.7161 L290.8758,31.2251 C289.6898,34.2221 287.5828,35.0121 284.8488,35.0781 C284.3548,35.0781 283.3008,34.9791 282.7738,34.8471 L283.3998,31.0931 Z" id="Fill-83" fill="#EB4724" fill-rule="nonzero"></path>
            <path d="M115.9332,17.6561 C115.9332,13.7701 113.5622,10.7731 109.0502,10.7731 L105.0652,10.7731 L105.0652,24.5061 L109.0502,24.5061 C113.3972,24.5061 115.9332,21.3771 115.9332,17.6561 L115.9332,17.6561 Z M100.3882,28.6231 L100.3882,6.6561 L109.0502,6.6561 C115.9332,6.6561 120.7082,11.0361 120.7082,17.6561 C120.7082,24.2761 115.9332,28.6231 109.0502,28.6231 L100.3882,28.6231 Z" id="Fill-85" fill="#0A4056" fill-rule="nonzero"></path>
            <path d="M123.111,28.623 L127.294,28.623 L127.294,12.716 L123.111,12.716 L123.111,28.623 Z M122.683,8.5 C122.683,7.117 123.836,6.03 125.186,6.03 C126.569,6.03 127.689,7.117 127.689,8.5 C127.689,9.884 126.569,11.003 125.186,11.003 C123.836,11.003 122.683,9.884 122.683,8.5 L122.683,8.5 Z" id="Fill-87" fill="#0A4056" fill-rule="nonzero"></path>
            <path d="M141.7706,22.9913 L141.7706,17.8533 C141.0786,16.8003 139.5646,16.0423 138.1806,16.0423 C135.8096,16.0423 134.1626,17.6893 134.1626,20.4223 C134.1626,23.1563 135.8096,24.8033 138.1806,24.8033 C139.5646,24.8033 141.0786,24.0123 141.7706,22.9913 M130.5406,32.7073 L132.4176,29.6773 C133.7016,31.0933 135.3816,31.6533 137.3906,31.6533 C139.3996,31.6533 141.7706,30.7643 141.7706,27.6353 L141.7706,26.0213 C140.5186,27.6023 138.8066,28.5243 136.8636,28.5243 C132.8786,28.5243 129.8486,25.7253 129.8486,20.4223 C129.8486,15.2193 132.8456,12.3213 136.8636,12.3213 C138.7736,12.3213 140.4856,13.1443 141.7706,14.7583 L141.7706,12.7163 L145.9866,12.7163 L145.9866,27.5363 C145.9866,33.5963 141.3096,35.0783 137.3906,35.0783 C134.6576,35.0783 132.5496,34.4523 130.5406,32.7073" id="Fill-89" fill="#0A4056" fill-rule="nonzero"></path>
            <path d="M149.061,28.623 L153.244,28.623 L153.244,12.716 L149.061,12.716 L149.061,28.623 Z M148.633,8.5 C148.633,7.117 149.785,6.03 151.136,6.03 C152.519,6.03 153.639,7.117 153.639,8.5 C153.639,9.884 152.519,11.003 151.136,11.003 C149.785,11.003 148.633,9.884 148.633,8.5 L148.633,8.5 Z" id="Fill-90" fill="#0A4056" fill-rule="nonzero"></path>
            <path d="M158.3101,24.6709 L158.3101,16.3719 L155.6761,16.3719 L155.6761,12.7159 L158.3101,12.7159 L158.3101,8.3689 L162.5261,8.3689 L162.5261,12.7159 L165.7531,12.7159 L165.7531,16.3719 L162.5261,16.3719 L162.5261,23.5509 C162.5261,24.5389 163.0531,25.2969 163.9751,25.2969 C164.6011,25.2969 165.1931,25.0659 165.4241,24.8359 L166.3131,27.9969 C165.6871,28.5569 164.5681,29.0179 162.8221,29.0179 C159.8911,29.0179 158.3101,27.5029 158.3101,24.6709" id="Fill-91" fill="#0A4056" fill-rule="nonzero"></path>
            <path d="M178.25,24.8028 L178.25,22.8268 C177.558,21.9048 176.241,21.4438 174.891,21.4438 C173.244,21.4438 171.894,22.2998 171.894,23.8478 C171.894,25.3298 173.244,26.1858 174.891,26.1858 C176.241,26.1858 177.558,25.7248 178.25,24.8028 L178.25,24.8028 Z M178.25,28.6228 L178.25,26.9768 C177.163,28.2608 175.286,29.0188 173.211,29.0188 C170.675,29.0188 167.678,27.3058 167.678,23.7488 C167.678,20.0268 170.675,18.6108 173.211,18.6108 C175.319,18.6108 177.196,19.3028 178.25,20.5538 L178.25,18.4138 C178.25,16.7998 176.867,15.7458 174.759,15.7458 C173.046,15.7458 171.465,16.3718 170.115,17.6228 L168.534,14.8238 C170.478,13.1108 172.981,12.3208 175.484,12.3208 C179.106,12.3208 182.433,13.7698 182.433,18.3478 L182.433,28.6228 L178.25,28.6228 Z" id="Fill-92" fill="#0A4056" fill-rule="nonzero"></path>
            <polygon id="Fill-93" fill="#0A4056" fill-rule="nonzero" points="185.34 28.623 189.523 28.623 189.523 6.656 185.34 6.656"></polygon>
            <path d="M56.2495,0.3755 L38.0485,0.3755 L35.2455,10.8385 L53.9475,10.8385 C78.9085,10.8385 73.6385,48.0895 44.5835,48.0895 L25.2635,48.0895 L22.4605,58.5515 L42.2825,58.5515 C91.9675,58.5515 94.7615,0.3755 56.2495,0.3755" id="Fill-94" fill="#0A4056" fill-rule="nonzero"></path>
            <path d="M105.13656,52.7478643 C106.58702,52.7478643 107.44411,52.1544943 108.053962,51.3633343 L107.229838,50.6051393 C106.702398,51.3138868 106.026615,51.6435368 105.20249,51.6435368 C103.504793,51.6435368 102.449912,50.3249368 102.449912,48.5613093 C102.449912,46.7976818 103.504793,45.4955643 105.20249,45.4955643 C106.026615,45.4955643 106.702398,45.8087318 107.229838,46.5339618 L108.053962,45.7757668 C107.44411,44.9846068 106.58702,44.3912368 105.13656,44.3912368 C102.76308,44.3912368 101.164277,46.2043118 101.164277,48.5613093 C101.164277,50.9347893 102.76308,52.7478643 105.13656,52.7478643 Z M116.920813,52.5500743 L116.920813,41.5562468 L115.684625,41.5562468 L115.684625,52.5500743 L116.920813,52.5500743 Z M128.770995,52.7478643 C126.348068,52.7478643 124.831678,50.8688593 124.831678,48.5613093 C124.831678,46.2537593 126.348068,44.3912368 128.770995,44.3912368 C131.193923,44.3912368 132.710313,46.2537593 132.710313,48.5613093 C132.710313,50.8688593 131.193923,52.7478643 128.770995,52.7478643 Z M128.770995,51.6435368 C130.468693,51.6435368 131.408195,50.1930768 131.408195,48.5613093 C131.408195,46.9460243 130.468693,45.4955643 128.770995,45.4955643 C127.073298,45.4955643 126.117313,46.9460243 126.117313,48.5613093 C126.117313,50.1930768 127.073298,51.6435368 128.770995,51.6435368 Z M147.23066,52.5500743 L147.23066,44.5890268 L145.994473,44.5890268 L145.994473,50.4403143 C145.532963,51.0831318 144.609943,51.6435368 143.637475,51.6435368 C142.566113,51.6435368 141.857365,51.2314743 141.857365,49.8304618 L141.857365,44.5890268 L140.621178,44.5890268 L140.621178,50.2095593 C140.621178,51.9402218 141.49475,52.7478643 143.159483,52.7478643 C144.346223,52.7478643 145.38462,52.1215293 145.994473,51.4292643 L145.994473,52.5500743 L147.23066,52.5500743 Z M162.608098,52.5500743 L161.37191,52.5500743 L161.37191,51.3633343 C160.77854,52.1709768 159.806073,52.7478643 158.685263,52.7478643 C156.608468,52.7478643 155.141525,51.1655443 155.141525,48.5777918 C155.141525,46.0394868 156.591985,44.3912368 158.685263,44.3912368 C159.756625,44.3912368 160.729093,44.9186768 161.37191,45.7922493 L161.37191,41.5562468 L162.608098,41.5562468 L162.608098,52.5500743 Z M158.981948,51.6435368 C159.970898,51.6435368 160.926883,51.0831318 161.37191,50.3908668 L161.37191,46.7811993 C160.926883,46.0889343 159.970898,45.4955643 158.981948,45.4955643 C157.383145,45.4955643 156.42716,46.8141643 156.42716,48.5777918 C156.42716,50.3414193 157.383145,51.6435368 158.981948,51.6435368 Z M183.654781,52.7478643 C185.715093,52.7478643 186.786456,51.6765018 186.786456,50.3414193 C186.786456,47.2427093 181.858188,48.3964843 181.858188,46.6493393 C181.858188,45.9405918 182.533971,45.3966693 183.621816,45.3966693 C184.643731,45.3966693 185.517303,45.8252143 185.995296,46.4021018 L186.572183,45.5450118 C185.929366,44.9021943 184.973381,44.3912368 183.621816,44.3912368 C181.726328,44.3912368 180.654966,45.4461168 180.654966,46.6823043 C180.654966,49.6326718 185.583233,48.4459318 185.583233,50.3743843 C185.583233,51.1655443 184.923933,51.7424318 183.704228,51.7424318 C182.616383,51.7424318 181.610951,51.2149918 181.083511,50.6051393 L180.440693,51.4951943 C181.248336,52.3522843 182.352663,52.7478643 183.654781,52.7478643 Z M198.175128,52.7478643 C195.752201,52.7478643 194.235811,50.8688593 194.235811,48.5613093 C194.235811,46.2537593 195.752201,44.3912368 198.175128,44.3912368 C200.598056,44.3912368 202.114446,46.2537593 202.114446,48.5613093 C202.114446,50.8688593 200.598056,52.7478643 198.175128,52.7478643 Z M198.175128,51.6435368 C199.872826,51.6435368 200.812328,50.1930768 200.812328,48.5613093 C200.812328,46.9460243 199.872826,45.4955643 198.175128,45.4955643 C196.477431,45.4955643 195.521446,46.9460243 195.521446,48.5613093 C195.521446,50.1930768 196.477431,51.6435368 198.175128,51.6435368 Z M211.261498,52.5500743 L211.261498,41.5562468 L210.025311,41.5562468 L210.025311,52.5500743 L211.261498,52.5500743 Z M226.243356,52.5500743 L226.243356,44.5890268 L225.007168,44.5890268 L225.007168,50.4403143 C224.545658,51.0831318 223.622638,51.6435368 222.650171,51.6435368 C221.578808,51.6435368 220.870061,51.2314743 220.870061,49.8304618 L220.870061,44.5890268 L219.633873,44.5890268 L219.633873,50.2095593 C219.633873,51.9402218 220.507446,52.7478643 222.172178,52.7478643 C223.358918,52.7478643 224.397316,52.1215293 225.007168,51.4292643 L225.007168,52.5500743 L226.243356,52.5500743 Z M236.626596,52.7478643 C237.351826,52.7478643 237.796853,52.5335918 238.110021,52.2369068 L237.747406,51.3138868 C237.582581,51.4951943 237.252931,51.6435368 236.906798,51.6435368 C236.362876,51.6435368 236.099156,51.2149918 236.099156,50.6216218 L236.099156,45.6768718 L237.714441,45.6768718 L237.714441,44.5890268 L236.099156,44.5890268 L236.099156,42.4133368 L234.862968,42.4133368 L234.862968,44.5890268 L233.544368,44.5890268 L233.544368,45.6768718 L234.862968,45.6768718 L234.862968,50.8853418 C234.862968,52.0720818 235.456338,52.7478643 236.626596,52.7478643 Z M245.971439,43.4517343 C246.432949,43.4517343 246.812046,43.0891193 246.812046,42.6276093 C246.812046,42.1660993 246.432949,41.7870018 245.971439,41.7870018 C245.526411,41.7870018 245.147314,42.1660993 245.147314,42.6276093 C245.147314,43.0891193 245.526411,43.4517343 245.971439,43.4517343 Z M246.597774,52.5500743 L246.597774,44.5890268 L245.361586,44.5890268 L245.361586,52.5500743 L246.597774,52.5500743 Z M258.447956,52.7478643 C256.025029,52.7478643 254.508639,50.8688593 254.508639,48.5613093 C254.508639,46.2537593 256.025029,44.3912368 258.447956,44.3912368 C260.870884,44.3912368 262.387274,46.2537593 262.387274,48.5613093 C262.387274,50.8688593 260.870884,52.7478643 258.447956,52.7478643 Z M258.447956,51.6435368 C260.145654,51.6435368 261.085156,50.1930768 261.085156,48.5613093 C261.085156,46.9460243 260.145654,45.4955643 258.447956,45.4955643 C256.750259,45.4955643 255.794274,46.9460243 255.794274,48.5613093 C255.794274,50.1930768 256.750259,51.6435368 258.447956,51.6435368 Z M276.907621,52.5500743 L276.907621,46.9625068 C276.907621,45.2318443 276.034049,44.3912368 274.369316,44.3912368 C273.182576,44.3912368 272.094731,45.0835018 271.534326,45.7428018 L271.534326,44.5890268 L270.298139,44.5890268 L270.298139,52.5500743 L271.534326,52.5500743 L271.534326,46.7317518 C271.995836,46.0889343 272.918856,45.4955643 273.891324,45.4955643 C274.962686,45.4955643 275.671434,45.9405918 275.671434,47.3416043 L275.671434,52.5500743 L276.907621,52.5500743 Z M287.801819,52.7478643 C289.862131,52.7478643 290.933494,51.6765018 290.933494,50.3414193 C290.933494,47.2427093 286.005226,48.3964843 286.005226,46.6493393 C286.005226,45.9405918 286.681009,45.3966693 287.768854,45.3966693 C288.790769,45.3966693 289.664341,45.8252143 290.142334,46.4021018 L290.719221,45.5450118 C290.076404,44.9021943 289.120419,44.3912368 287.768854,44.3912368 C285.873366,44.3912368 284.802004,45.4461168 284.802004,46.6823043 C284.802004,49.6326718 289.730271,48.4459318 289.730271,50.3743843 C289.730271,51.1655443 289.070971,51.7424318 287.851266,51.7424318 C286.763421,51.7424318 285.757989,51.2149918 285.230549,50.6051393 L284.587731,51.4951943 C285.395374,52.3522843 286.499701,52.7478643 287.801819,52.7478643 Z" id="cloud-solutions" fill="#003D53"></path>
        </g>
    </g>
</svg>