<svg xmlns="http://www.w3.org/2000/svg" width="35" height="46" viewBox="0 0 35 46">
    <g fill="#FFF" fill-rule="nonzero">
        <path d="M32 0c-1.5 0-2.7.9-2.7 2.7v7.7c-1.9-1.2-4.3-1.8-7-1.8h-11c-1.5 0-2.7 1.2-2.7 2.7L14 14h8.4c6.4 0 7 4.6 7 6.6 0 2.3-.6 3.9-1.7 5-1.2 1.1-3 1.6-5.5 1.6H14l-5.4 2.7c0 1.5 1.2 2.7 2.7 2.7h10.9c7.9 0 12.6-4.5 12.6-11.9v-18C34.6.8 33.4 0 32 0z"/>
        <path d="M12.2 26.9c-.2 0-.3.1-.5.1h.1c.1 0 .3 0 .4-.1z"/>
        <path d="M20.5 13.9c-2-3.2-5.4-5.4-9.3-5.4-2.1 0-4.1.6-5.8 1.8V2.7C5.4.8 4.2 0 2.7 0 1.2 0 0 .9 0 2.7v17.7c0 6.6 5 12 11.2 12 3.9 0 7.3-2.1 9.3-5.4 1.2-1.9 1.9-4.1 1.9-6.6s-.7-4.6-1.9-6.5zm-6.6 12.4c-.5.3-1 .5-1.6.6-.1 0-.3.1-.5.1h-.6c-1 0-1.9-.3-2.7-.7-1.9-1.1-3.1-3.3-3.1-5.8s1.3-4.7 3.1-5.8c.8-.5 1.7-.7 2.7-.7 1 0 1.9.3 2.7.7 1.9 1.1 3.1 3.3 3.1 5.8s-1.3 4.7-3.1 5.8zM17.1 46c-3.9 0-7.7-.8-11.1-2.5-1.4-.6-1.8-2.1-1.2-3.3.6-1.2 1.9-1.8 3.3-1.2 5.6 2.6 12.3 2.7 18.4 0 1.5-.6 2.7 0 3.3 1.3.6 1.3.1 2.7-1.3 3.3C24.9 45.2 21 46 17.1 46z"/>
    </g>
</svg>
